<svg width="19" height="30" viewBox="0 0 19 30" fill="none" xmlns="http://www.w3.org/2000/svg">
<path d="M18.1198 20.268C18.1198 21.478 17.8008 22.6 17.1628 23.634C16.5468 24.646 15.6228 25.482 14.3908 26.142C13.1808 26.78 11.7398 27.132 10.0678 27.198V29.871H7.95578V27.165C5.62378 26.967 3.74278 26.274 2.31278 25.086C0.882781 23.876 0.123781 22.237 0.0357811 20.169H6.04178C6.17378 21.489 6.81178 22.336 7.95578 22.71V17.496C6.23978 17.056 4.86478 16.627 3.83078 16.209C2.81878 15.791 1.92778 15.12 1.15778 14.196C0.387781 13.272 0.0027812 12.007 0.0027812 10.401C0.0027812 8.399 0.739781 6.793 2.21378 5.583C3.70978 4.373 5.62378 3.691 7.95578 3.537V0.864001H10.0678V3.537C12.3778 3.713 14.2038 4.384 15.5458 5.55C16.8878 6.716 17.6358 8.333 17.7898 10.401H11.7508C11.6188 9.213 11.0578 8.443 10.0678 8.091V13.206C11.8938 13.712 13.3018 14.163 14.2918 14.559C15.2818 14.955 16.1618 15.615 16.9318 16.539C17.7238 17.441 18.1198 18.684 18.1198 20.268ZM5.97578 10.137C5.97578 10.687 6.14078 11.149 6.47078 11.523C6.82278 11.897 7.31778 12.227 7.95578 12.513V7.926C7.33978 8.036 6.85578 8.278 6.50378 8.652C6.15178 9.004 5.97578 9.499 5.97578 10.137ZM10.0678 22.809C10.7278 22.699 11.2448 22.435 11.6188 22.017C12.0148 21.599 12.2128 21.082 12.2128 20.466C12.2128 19.894 12.0258 19.432 11.6518 19.08C11.2998 18.706 10.7718 18.387 10.0678 18.123V22.809Z" fill="#1B1C1F"/>
</svg>
